<?xml version="1.0" encoding="utf-8"?>
<!-- Generator: Adobe Illustrator 22.0.1, SVG Export Plug-In . SVG Version: 6.00 Build 0)  -->
<svg version="1.1" id="Layer_1" xmlns="http://www.w3.org/2000/svg" xmlns:xlink="http://www.w3.org/1999/xlink" x="0px" y="0px"
	 viewBox="0 0 354 152.3" style="enable-background:new 0 0 354 152.3;" xml:space="preserve">
<style type="text/css">
	.st0{fill:#924208;}
	.st1{fill:#7A3300;}
	.st2{fill:#DB3A3A;}
	.st3{fill:#B71F1F;}
	.st4{fill:#C07323;}
</style>
<g>
	<path class="st0" d="M4.8,27.7c0,0,130.6,17.5,188.1,19.6c52.2,1.9,156.6-6.8,156.6-6.8l-22.7,73.9c-25.5,3.4-65.4,6.4-116.2,6
		c-36.1-0.3-81.1-4.1-105.5-8.9C41.1,98.7,4.8,27.7,4.8,27.7L4.8,27.7z"/>
	<path class="st1" d="M4.8,27.7c0,0,130.6,17.5,188.1,19.6c52.2,1.9,156.6-6.8,156.6-6.8l-22.7,73.9c-6.5,0.9-14,1.7-22.4,2.5
		c-7.7,0.7-25.2,1.9-25.2,1.9s45.8-49.8,21.5-54.6c-20.1-4-83.1,1.2-144.2-2.3C85,57.8,15.8,45.4,15.8,45.4L4.8,27.7L4.8,27.7z"/>
	<path class="st2" d="M41.3,77.1c47.1,4.4,109.5,14.5,204,13.3c61.1-0.7,92.1-8.4,92.1-8.4l3.4-10.7c0,0-17.5,7.6-93.4,9.3
		C160.7,82.5,27.9,62.8,27.9,62.8C31.2,67.7,41.3,77.1,41.3,77.1L41.3,77.1z"/>
	<path class="st3" d="M306.7,77.3l-4.4,10c0,0,12.4-1.4,17.1-2.1c11.9-1.7,17.8-3.2,17.8-3.2l3.4-10.7c0,0-4.6,2-19.3,4.2
		C317.3,76.1,306.7,77.3,306.7,77.3L306.7,77.3z"/>
	<path class="st4" d="M179.1,47.2C129.4,45.6,78,38.3,27.8,32.5c-7.2-0.8-16.5-1.8-23.2-3C1.3,28.9-0.3,27,0.1,25
		c0.4-2.2,4.3-2.2,7.6-1.8c6.8,0.9,13.7,1.8,20.7,2.6c51.3,5.6,100.1,11.6,152.2,13.8c39.5,1.7,81.1,1.4,121.4-1.1
		c15-0.9,33.8-2.8,48.3-3.9c2.5-0.2,3.8,1.4,3.7,2.9c-0.1,2-1.1,3.8-4.4,4.1c-15.5,1.7-31.8,3.2-47.1,4.1
		C262.3,48.3,222.4,48.6,179.1,47.2L179.1,47.2z"/>
	<path class="st3" d="M275.7,148.1l-1.4,1.4c-4.8,4.8-10.8,3-15.6-1.7l-24.1-20.6c-4.8-4.8-4.8-12.5,0-17.3l1.4-1.4
		c4.8-4.8,12.5-4.8,17.3,0l20.7,24C278.7,137.3,280.4,143.4,275.7,148.1L275.7,148.1z"/>
	<polygon class="st2" points="265.8,122.8 258.7,147.8 248.1,138.7 253.6,108.8 265.8,122.8 	"/>
	<path class="st1" d="M243.7,113.5c0,0,0.1,1.4-1.3,2.7c-1.2,1.2-2.7,1.2-2.7,1.2L126.8,5c-1.2-1.2-1.2-3,0-4.2c1.2-1.2,3-1.2,4.2,0
		L243.7,113.5L243.7,113.5z"/>
	<path class="st0" d="M241.4,114.2c0.3,0.3,0.3,0.7,0,1c-0.1,0.2-0.3,0.3-0.5,0.5c-0.1,0.2-0.3,0.2-0.5,0.2c-0.2,0-0.4-0.1-0.6-0.2
		C231.3,107.2,128.5,4.5,128.5,4.5c-1.2-1.1-1.2-1.9-0.6-2.5c0.4-0.4,1.2-0.6,2.4,0.6C130.3,2.6,233.3,106,241.4,114.2L241.4,114.2z
		"/>
</g>
</svg>
