<?xml version="1.0" encoding="utf-8"?>
<!-- Generator: Adobe Illustrator 24.0.3, SVG Export Plug-In . SVG Version: 6.00 Build 0)  -->
<!DOCTYPE svg PUBLIC "-//W3C//DTD SVG 1.1//EN" "http://www.w3.org/Graphics/SVG/1.1/DTD/svg11.dtd" [
	<!ENTITY ns_extend "http://ns.adobe.com/Extensibility/1.0/">
	<!ENTITY ns_ai "http://ns.adobe.com/AdobeIllustrator/10.0/">
	<!ENTITY ns_graphs "http://ns.adobe.com/Graphs/1.0/">
	<!ENTITY ns_vars "http://ns.adobe.com/Variables/1.0/">
	<!ENTITY ns_imrep "http://ns.adobe.com/ImageReplacement/1.0/">
	<!ENTITY ns_sfw "http://ns.adobe.com/SaveForWeb/1.0/">
	<!ENTITY ns_custom "http://ns.adobe.com/GenericCustomNamespace/1.0/">
	<!ENTITY ns_adobe_xpath "http://ns.adobe.com/XPath/1.0/">
]>
<svg version="1.1" id="Layer_1" xmlns:x="&ns_extend;" xmlns:i="&ns_ai;" xmlns:graph="&ns_graphs;"
	 xmlns="http://www.w3.org/2000/svg" xmlns:xlink="http://www.w3.org/1999/xlink" x="0px" y="0px" viewBox="0 0 388.7 477.6"
	 style="enable-background:new 0 0 388.7 477.6;" xml:space="preserve">
<style type="text/css">
	.st0{fill-rule:evenodd;clip-rule:evenodd;fill:#FF7400;stroke:#000000;stroke-width:2.918;stroke-linecap:round;}
	.st1{fill:#FFFF00;stroke:#000000;stroke-width:4.137;stroke-linecap:round;stroke-linejoin:round;}
	.st2{fill:#FFFF00;stroke:#000000;stroke-width:4;stroke-linecap:round;stroke-linejoin:round;}
	.st3{fill-opacity:0.314;}
	
		.st4{fill-rule:evenodd;clip-rule:evenodd;fill:#FF0000;stroke:#000000;stroke-width:2.7;stroke-linecap:round;stroke-linejoin:round;}
	
		.st5{fill-rule:evenodd;clip-rule:evenodd;fill:#FF0000;stroke:#000000;stroke-width:2.94;stroke-linecap:round;stroke-linejoin:round;}
	.st6{fill:#FFFF00;stroke:#000000;stroke-width:2.716;stroke-linecap:round;stroke-linejoin:round;}
	.st7{fill:#FFFFFF;stroke:#000000;stroke-width:2.71;stroke-linecap:round;stroke-linejoin:round;}
	
		.st8{fill-rule:evenodd;clip-rule:evenodd;fill:#FFCE00;stroke:#000000;stroke-width:3.099;stroke-linecap:round;stroke-linejoin:round;}
	
		.st9{fill-rule:evenodd;clip-rule:evenodd;fill:#FF0000;stroke:#000000;stroke-width:3.062;stroke-linecap:round;stroke-linejoin:round;}
</style>
<metadata>
	<sfw  xmlns="&ns_sfw;">
		<slices></slices>
		<sliceSourceBounds  bottomLeftOrigin="true" height="477.6" width="388.7" x="155.9" y="0.5"></sliceSourceBounds>
	</sfw>
</metadata>
<g>
	<g>
		<path class="st0" d="M93.2,360.3c-8.6,0.8-7.3,11.3-7,17.5c-0.1,16.4,0,32.8,0.2,49.1c-13.5-1.7-27-5.4-40.5-6.5
			c-7.6,0.9-9.1,12.8-0.9,14.1c5.2,1.8,23.9,2.1,20.2,4.8c-11.6,5.2-24.4,8.4-35.5,14.3c-5.9,5.7,2.3,16,9.5,11.5
			c14.2-5.3,28.2-11,42.4-16.4c-1.3,7.6-8.1,14.7-6.7,22.4c3.1,7.9,16.4,6.2,16.6-2.9c3.6-9.1,6.8-18.3,10.2-27.4
			c12.7-5.5,26.4-9.4,38.7-15.4c6.2-4.7,1-15.2-6.6-12.6c-10.5,3.7-20.8,8-31.1,12c-0.3-19.2-0.3-38.4-0.2-57.4
			C101.9,363,97.6,359.9,93.2,360.3L93.2,360.3z"/>
		<g>
			<path class="st1" d="M324.7,179.1c4.8-14.4,2.5-22.9-0.7-24.9c-7-5.7-15.9-5.4-24.1-7c-5,0.2-10.6-1.1-17.7,12.5
				c-5.8,13.2-9.8,29.5-13,44c-6.4,29.5-6.3,56.3,2.1,60c10.5,5.4,29.1-21.9,43.1-56.2C318.1,198.5,321.6,188.9,324.7,179.1
				L324.7,179.1z"/>
			<path class="st1" d="M351.6,199c8.5-12.6,8.5-21.4,6-24.2c-5.3-7.3-13.9-9.3-21.4-12.9c-4.8-1.1-10-3.8-20.4,7.5
				c-9.1,11.2-17.2,26-24.2,39.2c-14,26.9-21,52.8-13.9,58.4c8.7,7.9,33.9-13.7,56.5-43.2C340,216,346,207.7,351.6,199L351.6,199z"
				/>
			<path class="st1" d="M375,220.7c11-10.6,12.8-19.2,11-22.4c-3.6-8.2-11.6-11.9-18.2-17c-4.5-2.1-9-5.8-21.6,3.2
				c-11.3,9.1-22.4,21.9-32,33.3c-19.4,23.4-31.7,47.3-25.9,54.3c6.8,9.5,36.1-6.4,64.4-30.6C360.1,235,367.7,228,375,220.7
				L375,220.7z"/>
		</g>
		<path class="st0" d="M219.8,359.3c-9.7,1.3-8.1,12.8-7.3,19.6c-0.6,14.9-0.1,29.9-0.5,44.9c-11.5-3.6-22.5-10.7-34.6-12.1
			c-9.1,1.1-6.6,14.9,1.7,14.9c11.2,5.1,24.5,8.1,34.3,14.5c4.8,10.6,6.8,23,13.4,32.6c6,5,17.1-2.5,12.4-9.6
			c-1.7-6.8-11.5-21.7,1.7-13.4c13,4.5,25.5,11.1,38.9,14.3c8.7,0.1,9.6-13.9,0.8-14.6c-11.2-4.4-22.5-8.8-33.7-13.2
			c8.6-2.7,19.5-0.7,26.9-6.1c5.2-5.7-3.1-14.6-9.7-11.3l-35.9,6c-0.1-20.7,1.1-41.7-0.4-62.3C226.4,360.7,223,359,219.8,359.3
			L219.8,359.3z"/>
	</g>
	<g>
		<g>
			<path class="st2" d="M311.6,266.8c0,84.2-69.3,152.4-154.8,152.4C71.3,419.2,2,351,2,266.8c0-84.2,69.3-152.4,154.8-152.4
				C242.3,114.4,311.6,182.6,311.6,266.8z"/>
			<path class="st3" d="M302.2,214.5c0.1,2.3,0.2,4.7,0.2,7.1c0,84.1-69.3,152.4-154.8,152.4C80.8,374,23.8,332.2,2.2,273.8
				c3.7,80.8,71.6,145.3,154.6,145.3c85.4,0,154.8-68.3,154.8-152.4C311.6,248.4,308.3,230.8,302.2,214.5L302.2,214.5z"/>
		</g>
		<g>
			<g>
				<path class="st4" d="M163.8,53.7l-7,65.3c15-14.5,30.8-28,51.8-33.8C266.9,69.3,192,16.8,163.8,53.7L163.8,53.7z"/>
				<path class="st5" d="M141.8,40.7l12.6,77.8c9.8-21.7,20.8-42.4,38.9-55.8C243.6,25.2,157.6-11.2,141.8,40.7z"/>
			</g>
			<path class="st6" d="M259,172.1c0,57.1-47,103.5-105.1,103.5c-58,0-105.1-46.3-105.1-103.5c0-57.1,47-103.5,105.1-103.5
				C212,68.6,259.1,115,259,172.1z"/>
		</g>
		<path class="st7" d="M226.2,154.6c0,16.4-13.5,29.6-30.1,29.6c-16.6,0-30.1-13.3-30.1-29.6c0-16.4,13.5-29.6,30.1-29.6
			C212.7,125,226.2,138.2,226.2,154.6z"/>
		<path d="M199.4,159.8c0,5.5-4.5,9.9-10,9.9c-5.5,0-10-4.4-10-9.9c0-5.5,4.5-9.9,10-9.9C194.9,149.9,199.4,154.4,199.4,159.8z"/>
		<path class="st7" d="M143.9,154.6c0,16.4-13.5,29.6-30.1,29.6c-16.6,0-30.1-13.3-30.1-29.6c0-16.4,13.5-29.6,30.1-29.6
			C130.5,125,143.9,138.2,143.9,154.6z"/>
		<path d="M131.4,159.8c0,5.5-4.5,9.9-10,9.9c-5.5,0-10-4.4-10-9.9c0-5.5,4.5-9.9,10-9.9C126.9,149.9,131.4,154.4,131.4,159.8z"/>
		<path class="st3" d="M256.7,137l-2.5,3.7c0.3,4.3,0.5,8.6,0.5,13c0,62.8-63.7,115-107.6,108.2c-36.6-5.7-80.4-27.4-100.1-73
			c10,56,75.2,97.5,106.4,97.2c69.1-0.7,107.6-48.9,107.6-111.7C261.1,161.3,259.6,148.7,256.7,137L256.7,137z"/>
		<g>
			<path class="st4" d="M124.3,222.6l26,60.4l28.6-54.2C169.1,204.1,139,201,124.3,222.6L124.3,222.6z"/>
			<path class="st8" d="M117.7,204.9l18,70.2l46.1-50.6C175.3,196,140,185.5,117.7,204.9L117.7,204.9z"/>
			<path class="st9" d="M114.1,33.6l38.6,85.9c1.8-25.1,5-49.3,17.4-66C204.7,7.1,111.2-25.8,114.1,33.6L114.1,33.6z"/>
		</g>
	</g>
</g>
</svg>
